<?xml version="1.0" encoding="utf-8"?>
<!-- Generator: Adobe Illustrator 17.0.0, SVG Export Plug-In . SVG Version: 6.00 Build 0)  -->
<svg version="1.2" baseProfile="tiny" id="Calque_2"
	 xmlns="http://www.w3.org/2000/svg" xmlns:xlink="http://www.w3.org/1999/xlink" x="0px" y="0px" width="595.28px"
	 height="613.469px" viewBox="0 0 595.28 613.469" xml:space="preserve">
<path fill="#FFFFFF" d="M129.05,432.698c5.638,1.607,8.265,1.86,10.384,3.033c35.796,19.807,66.38,81.175,60.733,121.623
	c-5.219,37.38-51.691,62.385-90.988,45.291c-20.488-8.912-39.698-23.97-55.266-40.28C26.281,533.416,9.56,498.167,5.499,457.318
	c-5.64-56.727,48.975-125.633,105.401-133.037c35.366-4.64,67.981,4.948,101.063,14.888c18.071,5.43,37.103,7.657,56.506,8.421
	c-24.516-9.485-51.844-12.498-68.698-40.021c33.631-8.208,71.638,10.035,97.341-25.565c23.688,33.283,58.435,19.643,91.988,24.476
	c-14.066,25.743-38.639,29.432-60.891,36.714c0.249,1.658,0.498,3.315,0.747,4.973c19.448-1.853,39.169-2.27,58.279-5.903
	c27.43-5.216,54.331-13.149,81.615-19.214c20.581-4.576,39.738-0.094,56.398,12.868c32.771,25.498,55.451,56.789,57.193,100.233
	c0.909,22.668-8.389,39.82-26.754,51.979c-14.806,9.802-30.609,18.09-45.525,27.737c-9.377,6.064-20.383,12.727-17.06,26.295
	c3.719,15.18,16.264,22.551,30.561,21.26c16.848-1.522,33.414-6.668,49.953-10.833c5.549-1.398,10.642-4.609,16.749-7.353
	c-5.961,22.038-42.044,49.714-68.139,53.557c-23.644,3.482-44.849-1.327-62.921-17.637c-26.005-23.469-30.179-49.532-11.861-79.329
	c9.025-14.68,19.9-28.246,28.595-43.102c19.606-33.495,2.765-62.885-36.076-64.266c-30.472-1.083-57.65,8.187-80.542,27.802
	c-28.256,24.211-50.572,52.899-60.312,89.843c-3.726,14.135-0.806,26.702,11.878,33.733c13.339,7.394,25.525-0.056,31.479-11.474
	c10.202-19.566,17.561-40.614,26.442-61.824c11.126,10.631,16.327,27.413,14.872,44.817c-3.282,39.264-24.292,67.533-60.268,83.219
	c-27.737,12.095-52.124,3.486-64.045-25.053c-10.265-24.574-15.275-51.342-22.63-77.133c-6.326-22.181-10.973-45.031-19.421-66.375
	c-13.278-33.549-47.559-50.663-90.37-48.131c-32.911,1.946-56.488,21.453-67.446,55.802
	c-11.817,37.043,20.891,97.649,58.116,107.684c26.008,7.011,41.653-4.007,38.116-30.295c-2.679-19.907-10.899-39.098-16.987-58.503
	C136.358,450.654,132.99,443.016,129.05,432.698z"/>
<path fill="#FFFFFF" d="M366.58,83.158c6.474,1.294,11.091,2.217,16.622,3.323c4.543-9.935,8.473-19.823,13.46-29.146
	c8.237-15.398,16.664-17.912,31.656-9.634c5.597,3.091,11.015,6.95,15.555,11.431c14.021,13.838,13.458,27.183-1.506,40.047
	c-5.26,4.522-11.248,8.196-17.791,12.895c2.256,4.842,4.432,9.511,6.467,13.878c15.168-5.66,28.869-12.045,43.272-15.517
	c5.714-1.378,16.262,1.701,19.005,6.181c15.304,24.995,18.307,49.253-20.12,52.221c-3.81,0.294-7.166,6.467-10.732,9.911
	c3.761,3.243,7.073,7.517,11.422,9.412c3.64,1.586,8.491,0.435,12.806,0.423c12.233-0.031,19.178,6.102,20.67,18.129
	c1.584,12.766-2.294,23.224-15.933,25.817c-12.593,2.393-25.692,2.036-38.379,4.069c-4.692,0.752-8.845,4.865-13.244,7.446
	c3.934,4.033,7.478,10.951,11.876,11.545c11.956,1.616,24.275,0.555,36.439,0.555c-1.209,16.513-11.613,28.377-27.796,28.604
	c-41.524,0.582-83.065,0.528-124.59,0.017c-15.083-0.185-22.493-11.563-27.576-23.906c-4.443-10.791-7.652-22.089-12.444-36.225
	c-3.652,13.463-6.088,24.211-9.502,34.639c-6.223,19.009-15.789,25.698-35.895,25.736c-37.757,0.073-75.515,0.206-113.269-0.072
	c-18.808-0.138-29.364-9.922-32.253-28.607c11.01,0.021,22.197,1.18,32.955-0.465c5.421-0.829,13.55-6.092,14.37-10.486
	c2.006-10.747-7.638-8.58-14.389-9.114c-12.302-0.973-24.755-1.4-36.808-3.769c-12.572-2.471-17.488-11.735-15.725-24.247
	c1.693-12.016,7.219-20.18,20.918-19.709c5.384,0.185,11.203,1.101,16.032-0.584c3.327-1.161,7.311-6.229,7.3-9.538
	c-0.012-3.306-4.543-6.673-7.315-9.818c-0.492-0.558-2.078-0.098-3.149-0.206c-11.97-1.212-27.046-2.156-28.272-16.025
	c-1.082-12.236,4.374-25.858,9.938-37.428c1.918-3.989,13.616-6.359,19.528-4.717c13.3,3.694,25.776,10.358,40.333,16.557
	c2.409-4.39,5.067-9.233,7.775-14.168c-14.198-11.649-36.372-20.177-26.775-41.293c5.523-12.153,22.349-25.823,34.923-26.69
	c23.968-1.653,23.025,25.176,33.138,41.329c4.394-0.648,9.453-1.394,17.126-2.525c-3.912-11.421-6.54-21.686-10.854-31.186
	c-11.093-24.422-10.76-32.882,3.129-40.633c17.532-9.784,46.368-4.054,53.651,14.218c7.806,19.583,10.741,41.23,14.638,62.192
	c1.649,8.868-0.47,18.393,0.712,27.411c0.534,4.076,4.945,7.643,7.598,11.441c3.282-3.766,8.86-7.195,9.47-11.353
	c3.806-25.954,4.24-52.602,10.203-77.984c5.952-25.335,27.779-35.306,51.347-28.067c19.161,5.885,23.597,16.533,14.623,34.451
	c-4.092,8.169-7.997,16.456-11.459,24.905C368.176,72.692,367.874,77.075,366.58,83.158z"/>
</svg>
